<?xml version="1.0" encoding="UTF-8" standalone="no"?>
<!DOCTYPE svg PUBLIC "-//W3C//DTD SVG 1.1//EN" "http://www.w3.org/Graphics/SVG/1.1/DTD/svg11.dtd">
<svg version="1.1" xmlns="http://www.w3.org/2000/svg" xmlns:xlink="http://www.w3.org/1999/xlink" preserveAspectRatio="xMidYMid meet" viewBox="0 0 640 640" width="800" height="800"><defs><path d="" id="btxD3GVEy"></path><path d="M493.21 409.85L493.21 209.85" id="l1ZkdFjxBP"></path><path d="" id="bHr2kQTan"></path><path d="M493.21 209.85L320 309.85" id="bMRNf5RfX"></path><path d="M146.79 409.85L146.79 209.85" id="bGJMGitvF"></path><path d="M320 309.85L146.79 209.85" id="g5P7e5jHWf"></path><path d="M320 309.85L493.21 209.85L471.55 197.35L320 284.85L168.45 197.35L146.79 209.85L320 309.85Z" id="f377W7Fowm"></path><path d="M493.21 409.85L493.21 209.85L320 309.85L320 334.85L471.83 247.19L471.55 422.35L493.21 409.85Z" id="a4yoT9xH24"></path><path d="M320 309.85L146.79 209.85L146.79 409.85L168.45 422.35L168.45 247.03L320 334.85L320 309.85Z" id="bWPFBdzTO"></path><path d="" id="b4zhXXLJt"></path><path d="M384.63 247.02L319.68 209.52" id="a5q0tj2vey"></path><path d="M233.4 384.85L211.75 397.35" id="a6hleSxIs"></path><path d="M233.4 309.85L233.4 384.85" id="e1G3m4PJnQ"></path><path d="M320 259.52L298.35 272.02" id="ggSaTonnt"></path><path d="M255.05 297.35L233.4 309.85" id="dxN8REylt"></path><path d="" id="d4WvqFAGo"></path><path d="M320 234.52L320 259.52" id="mgjhDmIzc"></path><path d="M320 209.85L255.05 247.35" id="e45oBijepr"></path><path d="M320 234.52L276.7 259.52" id="a1rkgLP9pt"></path><path d="M341.33 272.02L319.68 259.52" id="dDPDO10lZ"></path><path d="M363.25 259.85L319.95 234.85" id="e22YtJKWzI"></path><path d="M428.25 322.35L384.95 297.35" id="f1BRBrlZGy"></path><path d="M168.45 247.02L190.1 259.85L190.1 409.85L168.45 422.35L168.45 247.02Z" id="b6sCVEZD9D"></path><path d="M471.55 247.02L449.9 259.85L449.9 409.85L471.55 422.35L471.55 247.02Z" id="a3Bk3wfZaR"></path><path d="M449.9 284.85L449.9 309.85L428.15 322.35L428.15 297.35L449.9 284.85Z" id="b3Lzw5hXoL"></path><path d="M449.9 184.52L449.9 209.52L428.15 222.02L428.15 197.02L449.9 184.52Z" id="b1V0xVh35"></path><path d="M211.85 222.02L211.85 197.02L190.1 184.52L190.1 209.52L211.85 222.02Z" id="bfPYk9qEa"></path><path d="" id="e3eOgDw8mm"></path><path d="M319.68 134.1L427.83 196.6L449.58 183.77L319.68 109.1L189.77 184.1L211.52 196.6L319.68 134.1Z" id="g1sURYd5fP"></path><path d="M190.1 259.85L211.85 272.02L211.85 397.35L190.1 384.85L190.1 259.85Z" id="aQI5tBbBK"></path><path d="M211.85 222.02L233.4 234.52L233.4 209.85L320 158.1L319.68 134.19L211.85 196.6L211.85 222.02Z" id="adv2oAW4"></path><path d="M406.6 284.89L428.25 297.39L449.95 284.81L428.3 272.31L406.6 284.89Z" id="h5p3TJBX4C"></path><path d="M428.15 222.02L428.15 196.6L319.68 134.19L320 158.27L428.15 222.02Z" id="aWYQGBUk"></path><path d="" id="a4A5pJXAjz"></path></defs><g><g><g><g><use xlink:href="#btxD3GVEy" opacity="1" fill-opacity="0" stroke="#000000" stroke-width="1" stroke-opacity="0.42"></use></g></g><g><g><use xlink:href="#l1ZkdFjxBP" opacity="1" fill-opacity="0" stroke="#000000" stroke-width="1" stroke-opacity="0.42"></use></g></g><g><g><use xlink:href="#bHr2kQTan" opacity="1" fill-opacity="0" stroke="#000000" stroke-width="1" stroke-opacity="1"></use></g></g><g><g><use xlink:href="#bMRNf5RfX" opacity="1" fill-opacity="0" stroke="#000000" stroke-width="1" stroke-opacity="0.42"></use></g></g><g><g><use xlink:href="#bGJMGitvF" opacity="1" fill-opacity="0" stroke="#000000" stroke-width="1" stroke-opacity="0.42"></use></g></g><g><g><use xlink:href="#g5P7e5jHWf" opacity="1" fill-opacity="0" stroke="#000000" stroke-width="1" stroke-opacity="0.42"></use></g></g><g><g><use xlink:href="#f377W7Fowm" opacity="1" fill-opacity="0" stroke="#000000" stroke-width="1" stroke-opacity="1"></use></g></g><g><g><use xlink:href="#a4yoT9xH24" opacity="1" fill-opacity="0" stroke="#000000" stroke-width="1" stroke-opacity="1"></use></g></g><g><g><use xlink:href="#bWPFBdzTO" opacity="1" fill-opacity="0" stroke="#000000" stroke-width="1" stroke-opacity="1"></use></g></g><g><g><use xlink:href="#b4zhXXLJt" opacity="1" fill-opacity="0" stroke="#000000" stroke-width="1" stroke-opacity="1"></use></g></g><g><g><use xlink:href="#a5q0tj2vey" opacity="1" fill-opacity="0" stroke="#000000" stroke-width="1" stroke-opacity="1"></use></g></g><g><g><use xlink:href="#a6hleSxIs" opacity="1" fill-opacity="0" stroke="#000000" stroke-width="1" stroke-opacity="1"></use></g></g><g><g><use xlink:href="#e1G3m4PJnQ" opacity="1" fill-opacity="0" stroke="#000000" stroke-width="1" stroke-opacity="1"></use></g></g><g><g><use xlink:href="#ggSaTonnt" opacity="1" fill-opacity="0" stroke="#000000" stroke-width="1" stroke-opacity="1"></use></g></g><g><g><use xlink:href="#dxN8REylt" opacity="1" fill-opacity="0" stroke="#000000" stroke-width="1" stroke-opacity="1"></use></g></g><g><g><use xlink:href="#d4WvqFAGo" opacity="1" fill-opacity="0" stroke="#f31313" stroke-width="1" stroke-opacity="1"></use></g></g><g><g><use xlink:href="#mgjhDmIzc" opacity="1" fill-opacity="0" stroke="#000000" stroke-width="1" stroke-opacity="1"></use></g></g><g><g><use xlink:href="#e45oBijepr" opacity="1" fill-opacity="0" stroke="#000000" stroke-width="1" stroke-opacity="1"></use></g></g><g><g><use xlink:href="#a1rkgLP9pt" opacity="1" fill-opacity="0" stroke="#000000" stroke-width="1" stroke-opacity="1"></use></g></g><g><g><use xlink:href="#dDPDO10lZ" opacity="1" fill-opacity="0" stroke="#000000" stroke-width="1" stroke-opacity="1"></use></g></g><g><g><use xlink:href="#e22YtJKWzI" opacity="1" fill-opacity="0" stroke="#000000" stroke-width="1" stroke-opacity="1"></use></g></g><g><g><use xlink:href="#f1BRBrlZGy" opacity="1" fill-opacity="0" stroke="#000000" stroke-width="1" stroke-opacity="1"></use></g></g><g><g><use xlink:href="#b6sCVEZD9D" opacity="1" fill-opacity="0" stroke="#000000" stroke-width="1" stroke-opacity="1"></use></g></g><g><g><use xlink:href="#a3Bk3wfZaR" opacity="1" fill-opacity="0" stroke="#000000" stroke-width="1" stroke-opacity="1"></use></g></g><g><g><use xlink:href="#b3Lzw5hXoL" opacity="1" fill-opacity="0" stroke="#030303" stroke-width="1" stroke-opacity="1"></use></g></g><g><g><use xlink:href="#b1V0xVh35" opacity="1" fill-opacity="0" stroke="#030303" stroke-width="1" stroke-opacity="1"></use></g></g><g><g><use xlink:href="#bfPYk9qEa" opacity="1" fill-opacity="0" stroke="#030303" stroke-width="1" stroke-opacity="1"></use></g></g><g><g><use xlink:href="#e3eOgDw8mm" opacity="1" fill-opacity="0" stroke="#f60c0c" stroke-width="1" stroke-opacity="1"></use></g></g><g><g><use xlink:href="#g1sURYd5fP" opacity="1" fill-opacity="0" stroke="#000000" stroke-width="1" stroke-opacity="1"></use></g></g><g><g><use xlink:href="#aQI5tBbBK" opacity="1" fill-opacity="0" stroke="#060606" stroke-width="1" stroke-opacity="1"></use></g></g><g><g><use xlink:href="#adv2oAW4" opacity="1" fill-opacity="0" stroke="#060606" stroke-width="1" stroke-opacity="1"></use></g></g><g><g><use xlink:href="#h5p3TJBX4C" opacity="1" fill-opacity="0" stroke="#030303" stroke-width="1" stroke-opacity="1"></use></g></g><g><g><use xlink:href="#aWYQGBUk" opacity="1" fill-opacity="0" stroke="#060606" stroke-width="1" stroke-opacity="1"></use></g></g><g><g><use xlink:href="#a4A5pJXAjz" opacity="1" fill-opacity="0" stroke="#060606" stroke-width="1" stroke-opacity="1"></use></g></g></g></g></svg>